<svg xmlns="http://www.w3.org/2000/svg" id="info" viewBox="0 0 200 93.08" width="125" height="75">
    <defs>
        <style>
            .cls-1 {
                fill: #009ba9;
            }

            .cls-2 {
                fill: #312c65;
            }

            .cls-3 {
                fill: #e60063;
            }

            .cls-4 {
                fill: #e30613;
            }

            .cls-5 {
                fill: #f39200;
            }

            .cls-6 {
                fill: #6a0c00;
            }

            .cls-7 {
                fill: #0bbbef;
            }

            .cls-8 {
                fill: #69b42e;
            }

            .cls-9 {
                fill: #3c3c3b;
            }

            .cls-10 {
                fill: #ec6608;
            }
        </style>
    </defs>
    <rect class="cls-1" x="94.97" y="82.56" width="25.91" height="5.48" />
    <rect class="cls-2" x="120.88" y="82.56" width="8.59" height="5.48" />
    <rect class="cls-3" x="129.48" y="82.56" width="29.1" height="5.48" />
    <rect class="cls-4" x="158.58" y="82.56" width="20.03" height="5.48" />
    <rect class="cls-5" x="178.61" y="82.56" width="19.63" height="5.48" />
    <rect class="cls-4" x="45.33" y="82.56" width="28.9" height="5.48" />
    <rect class="cls-6" x="74.23" y="82.56" width="2.53" height="5.48" />
    <rect class="cls-7" x="76.76" y="82.56" width="18.21" height="5.48" />
    <rect class="cls-8" x="1.78" y="82.56" width="32.85" height="5.48" />
    <rect class="cls-6" x="34.63" y="82.56" width="10.7" height="5.48" />
    <path class="cls-9" d="M85.35,35.6V38a2.88,2.88,0,0,0,2.87,3H112.6V36H92l20.92-22.52V8.06H85.34v5H105.9Z" />
    <path class="cls-9" d="M158.31,10.12h5V5h-5Z" />
    <path class="cls-9" d="M148.85,10.12h5V5h-5Z" />
    <path class="cls-9" d="M153.25,16.11v21.8c0,1.15.47,3.05,2.55,3.05h2.72V16.11Z" />
    <path class="cls-9"
        d="M136.31,41c4.9,0,9.86-3.29,9.86-9.88v-13c0-6.66-5-10-9.25-10H117.65V9.1c0,2.73,1.06,4,3.43,4H136.3a4.66,4.66,0,0,1,4.82,5v3.38H125.6a9.33,9.33,0,0,0-9.37,9.18s0,.29,0,.51,0,.57,0,.57A9.32,9.32,0,0,0,125.6,41Zm0-5H126a4.46,4.46,0,0,1-4.76-4.73c0-2.86,1.24-4.8,4.76-4.8h15.08V31C141.12,34,139.25,36,136.35,36Z" />
    <path class="cls-9"
        d="M38.84,41h3c2,0,3-1.18,3-3.46V16c0-7.32-5.29-10.6-10.53-10.6l-32.55,0V41H4.84c2.43,0,2.94-1.89,2.94-3.46V11.07H33.11a5.34,5.34,0,0,1,5.73,5.67Z" />
    <path class="cls-9" d="M20.32,41h3a2.84,2.84,0,0,0,2.14-.75,4,4,0,0,0,.82-2.69V19.3c0-2.68-.77-5.19-6-5.45Z" />
    <path class="cls-9"
        d="M168.31,5V37.91c0,.9.45,3.07,2.56,3.07h2.71V26.27l.89.49A55.43,55.43,0,0,1,191.24,41h7a54.32,54.32,0,0,0-19.85-17.47l-1-.5.94-.55A61.17,61.17,0,0,0,197.2,5.08h-6.35a57.15,57.15,0,0,1-16.37,13.85l-.9.5V5Z" />
    <path class="cls-9"
        d="M71.41,8H60.27c-4.89,0-9.41,3.39-9.41,9.86V31.09c0,6.47,4.52,9.85,9.41,9.85H71.41c4.89,0,9.41-3.38,9.41-9.85V17.9C80.82,11.43,76.3,8,71.41,8Zm4.38,23c0,2.79-1.56,4.92-4.23,4.92H60.12c-2.67,0-4.23-2.13-4.23-4.92V18c0-2.78,1.56-4.91,4.23-4.91H71.56c2.67,0,4.23,2.13,4.23,4.91Z" />
    <path class="cls-10" d="M19.26,54.14H11.9V68.28H9.35V54.14H2V51.66H19.26Z" />
    <path class="cls-10"
        d="M39.93,68.28H37.12l-1.51-3H26.82l-1.5,3H22.51l7.12-14.12H32.8Zm-5.59-5.51-3.11-6.26L28.1,62.77Z" />
    <path class="cls-10" d="M59.36,68.28H46.7V54.16h2.56V65.8h10.1Z" />
    <path class="cls-10" d="M80.46,68.28H66.38V54.16H80v2.48h-11v3h7.68v2.48H68.93V65.8H80.46Z" />
    <path class="cls-10" d="M103.27,68.28H99.46L90.57,56.5V68.28H88V54.16h3.81l8.89,11.78V54.16h2.56Z" />
    <path class="cls-10" d="M124.92,56.64h-6.25V68.28h-2.56V56.64h-6.25V54.16h15.06Z" />
    <path class="cls-10"
        d="M143.36,57.65a11,11,0,0,0-5.55-1.45q-4.37,0-4.36,1.68c0,.66.55,1.08,1.64,1.28l4.47.44a10.81,10.81,0,0,1,4.57,1.24,3.34,3.34,0,0,1,1.51,3,4,4,0,0,1-1.88,3.51,9.94,9.94,0,0,1-5.46,1.24,12.32,12.32,0,0,1-8.06-2.48l1.38-2a10.69,10.69,0,0,0,6.64,2,7.72,7.72,0,0,0,3.42-.61A1.82,1.82,0,0,0,142.9,64c0-.75-.5-1.28-1.49-1.59a11.74,11.74,0,0,0-2.58-.34c-1.81-.09-2.93-.16-3.34-.21a7.22,7.22,0,0,1-3.57-1.12,3,3,0,0,1-1.15-2.55A3.64,3.64,0,0,1,132.61,55a9.52,9.52,0,0,1,5.16-1.18,11.6,11.6,0,0,1,7.17,2.07Z" />
</svg>